# xmcd CD database file
#
# Track frame offsets:
#	182
#	12257
#	18557
#	29507
#	42182
#	53357
#	58457
#	67757
#	79832
#	91457
#	97757
#	101057
#	103607
#	108557
#	126107
#	135857
#	144107
#	149207
#	154457
#	158807
#	169232
#	177782
#	184082
#	196757
#	205007
#
# Disc length: 2814 seconds
#
# Revision: 0
# Processed by: cddbd v1.5.1PL0 Copyright (c) Steve Scherf et al.
# Submitted via: CDex 1.51
#
DISCID=510afc19
DTITLE=Sonoton Authentic  Series - SAS 031 - Authentic Hungary
DYEAR=1989
DGENRE=Contentum
TTITLE0=Deep Water 1
TTITLE1=Deep Water 2
TTITLE2=Friss a Rozsa 1
TTITLE3=Friss a Rozsa 2
TTITLE4=Fingers in my pocket 1
TTITLE5=Fingers in my pocket 2
TTITLE6=Cigany
TTITLE7=Puszta 1
TTITLE8=Puszta 2
TTITLE9=Hurt dog 1
TTITLE10=Hurt dog 2
TTITLE11=Hurt dog 3
TTITLE12=Flying bumblebee
TTITLE13=Andalgo 1
TTITLE14=Andalgo 2
TTITLE15=Cimbalom
TTITLE16=Kaposi Czardas 1
TTITLE17=Kaposi Czardas 2
TTITLE18=Kaposi Czardas 3
TTITLE19=Woman in red 1
TTITLE20=Woman in red 2
TTITLE21=Woman in red 3
TTITLE22=Flying Swallow 1
TTITLE23=Flying Swallow 2
TTITLE24=Flying Swallow 3
EXTD=YEAR: 1989
EXTT0=
EXTT1=
EXTT2=
EXTT3=
EXTT4=
EXTT5=
EXTT6=
EXTT7=
EXTT8=
EXTT9=
EXTT10=
EXTT11=
EXTT12=
EXTT13=
EXTT14=
EXTT15=
EXTT16=
EXTT17=
EXTT18=
EXTT19=
EXTT20=
EXTT21=
EXTT22=
EXTT23=
EXTT24=
PLAYORDER=
